<?xml version="1.0" encoding="UTF-8"?>
<svg width="26px" height="26px" viewBox="0 0 26 26" version="1.1" xmlns="http://www.w3.org/2000/svg" xmlns:xlink="http://www.w3.org/1999/xlink">
    <title>facebook</title>
    <g id="Icons" stroke="none" stroke-width="1" fill="none" fill-rule="evenodd">
        <g id="social" transform="translate(-17.000000, -17.000000)" fill="#000000">
            <path d="M34.026425,24.6217375 L32.5566125,24.6217375 C31.403675,24.6217375 31.18105,25.18805 31.1802375,26.015175 L31.1802375,27.987925 L33.7818625,27.987925 L33.425175,30.8503625 L31.18105,30.8503625 L31.18105,38.0523625 L28.312925,38.0523625 L28.312925,30.84955 L25.9737375,30.84955 L25.9737375,27.9871125 L28.312925,27.9871125 L28.312925,25.7316125 C28.312925,23.2811125 29.7648625,21.9478 31.884675,21.9478 C32.9003,21.9478 33.772925,22.0266125 34.026425,22.06155 L34.026425,24.6217375 Z M29.999675,17.0004875 C22.820425,17.0004875 16.999675,22.820425 16.999675,30.0004875 C16.999675,37.1797375 22.820425,43.0004875 29.999675,43.0004875 C37.1797375,43.0004875 42.999675,37.1797375 42.999675,30.0004875 C42.999675,22.820425 37.1797375,17.0004875 29.999675,17.0004875 L29.999675,17.0004875 Z" id="facebook"></path>
        </g>
    </g>
</svg>