<?xml version="1.0" encoding="UTF-8"?>
<svg width="26px" height="26px" viewBox="0 0 26 26" version="1.1" xmlns="http://www.w3.org/2000/svg" xmlns:xlink="http://www.w3.org/1999/xlink">
    <title>instagram</title>
    <g id="Icons" stroke="none" stroke-width="1" fill="none" fill-rule="evenodd">
        <g id="social-" transform="translate(-17.000000, -17.000000)" fill="#000000">
            <path d="M29.9999188,17 C37.1799813,17 42.9999188,22.82075 42.9999188,30 C42.9999188,37.1800625 37.1799813,43 29.9999188,43 C22.8206688,43 16.9999188,37.1800625 16.9999188,30 C16.9999188,22.82075 22.8206688,17 29.9999188,17 Z M30.685708,23.0487465 L29.3141295,23.0487465 C28.0377883,23.0509343 27.774075,23.0609176 27.1334188,23.0896875 C26.3940438,23.1238125 25.8886688,23.2408125 25.4466688,23.4130625 C24.9892313,23.5901875 24.6016688,23.82825 24.2149188,24.215 C23.8281688,24.60175 23.5901063,24.9893125 23.4129813,25.44675 C23.2407313,25.88875 23.1237313,26.394125 23.0896063,27.1335 C23.0608364,27.7741562 23.050853,28.0378696 23.0486653,29.3142107 L23.0486653,30.6857893 C23.050853,31.9621304 23.0608364,32.2258437 23.0896063,32.8665 C23.1237313,33.6066875 23.2407313,34.1120625 23.4129813,34.5540625 C23.5901063,35.0115 23.8281688,35.3990625 24.2149188,35.785 C24.6016688,36.17175 24.9892313,36.4098125 25.4466688,36.5869375 C25.8886688,36.7591875 26.3940438,36.877 27.1334188,36.9103125 C27.774075,36.9397841 28.0377883,36.9492571 29.3141295,36.9512926 L30.685708,36.9512926 C31.9620492,36.9492571 32.2257625,36.9397841 32.8664188,36.9103125 C33.6066063,36.877 34.1119813,36.7591875 34.5539813,36.5869375 C35.0114188,36.4098125 35.3989813,36.17175 35.7849188,35.785 C36.1716688,35.3990625 36.4097313,35.0115 36.5868563,34.5540625 C36.7591063,34.1120625 36.8761063,33.6066875 36.9102313,32.8665 C36.9397028,32.2258437 36.9491759,31.9621304 36.9512114,30.6857893 L36.9512114,29.3142107 C36.9491759,28.0378696 36.9397028,27.7741562 36.9102313,27.1335 C36.8761063,26.394125 36.7591063,25.88875 36.5868563,25.44675 C36.4097313,24.9893125 36.1716688,24.60175 35.7849188,24.215 C35.3989813,23.82825 35.0114188,23.5901875 34.5539813,23.4130625 C34.1119813,23.2408125 33.6066063,23.1238125 32.8664188,23.0896875 C32.2257625,23.0609176 31.9620492,23.0509343 30.685708,23.0487465 Z M30.2434458,24.3009283 C30.3212413,24.3009603 30.3958593,24.3010091 30.4675015,24.3010766 L30.8632598,24.3017188 C31.9530915,24.3043998 32.2095125,24.3142506 32.8091375,24.3415062 C33.4867625,24.3723812 33.854825,24.4853187 34.1002,24.5811937 C34.4243875,24.7063187 34.65595,24.8574437 34.8997,25.1003812 C35.1426375,25.3441312 35.2937625,25.5756937 35.4197,25.8998812 C35.5147625,26.1452562 35.6277,26.5133187 35.658575,27.1909437 C35.6888591,27.8571937 35.6976556,28.0997351 35.6990047,29.5331902 L35.6990047,30.4677453 C35.6976556,31.9005899 35.6888591,32.1431312 35.658575,32.8093812 C35.6277,33.4870062 35.5147625,33.8550687 35.4197,34.1004437 C35.2937625,34.4246312 35.1426375,34.6561937 34.8997,34.8999437 C34.65595,35.1428812 34.4243875,35.2940062 34.1002,35.4191312 C33.854825,35.5150062 33.4867625,35.6279437 32.8091375,35.6588187 C32.242825,35.6845602 31.982642,35.6947769 31.0373834,35.6980912 L30.6737027,35.6989884 C30.6078102,35.6990949 30.5391437,35.699181 30.4675015,35.6992484 L29.5329464,35.6992484 C29.4612737,35.699181 29.3925782,35.6990949 29.3266582,35.6989884 L28.962829,35.6980912 C28.0171955,35.6947769 27.7570125,35.6845602 27.1907,35.6588187 C26.513075,35.6279437 26.1450125,35.5150062 25.8996375,35.4191312 C25.57545,35.2940062 25.3438875,35.1428812 25.1001375,34.8999437 C24.8572,34.6561937 24.706075,34.4246312 24.58095,34.1004437 C24.4858875,33.8550687 24.3721375,33.4870062 24.3412625,32.8093812 C24.3109784,32.1431312 24.3021819,31.9005899 24.3008328,30.4677453 L24.3008328,29.5331902 C24.3021819,28.0997351 24.3109784,27.8571937 24.3412625,27.1909437 C24.3721375,26.5133187 24.4858875,26.1452562 24.58095,25.8998812 C24.706075,25.5756937 24.8572,25.3441312 25.1001375,25.1003812 C25.3438875,24.8574437 25.57545,24.7063187 25.8996375,24.5811937 C26.1450125,24.4853187 26.513075,24.3723812 27.1907,24.3415062 C27.790325,24.3142506 28.046746,24.3043998 29.1370227,24.3017188 L29.5329464,24.3010766 C29.6762919,24.3009417 29.8315466,24.3008812 30.000325,24.3008812 Z M30.000325,26.4304437 C28.0283875,26.4304437 26.4302,28.0286312 26.4302,30.0005687 C26.4302,31.9716937 28.0283875,33.5698812 30.000325,33.5698812 C31.97145,33.5698812 33.57045,31.9716937 33.57045,30.0005687 C33.57045,28.0286312 31.97145,26.4304437 30.000325,26.4304437 Z M30,27.6828312 C31.2796875,27.6828312 32.31725,28.7203937 32.31725,30.0000812 C32.31725,31.2797687 31.2796875,32.3173312 30,32.3173312 C28.7203125,32.3173312 27.68275,31.2797687 27.68275,30.0000812 C27.68275,28.7203937 28.7203125,27.6828312 30,27.6828312 Z M33.7110125,25.4546312 C33.250325,25.4546312 32.876575,25.8283812 32.876575,26.2890687 C32.876575,26.7497562 33.250325,27.1235062 33.7110125,27.1235062 C34.1717,27.1235062 34.54545,26.7497562 34.54545,26.2890687 C34.54545,25.8283812 34.1717,25.4546312 33.7110125,25.4546312 Z" id="instagram"></path>
        </g>
    </g>
</svg>