<?xml version="1.0" encoding="UTF-8"?>
<svg width="170px" height="35px" viewBox="0 0 170 35" version="1.1" xmlns="http://www.w3.org/2000/svg" xmlns:xlink="http://www.w3.org/1999/xlink">
    <title>logo-design-hotels</title>
    <g id="Icons" stroke="none" stroke-width="1" fill="none" fill-rule="evenodd">
        <g id="logo" transform="translate(-14.000000, -13.000000)" fill="#000000">
            <path d="M30.9827183,13.04 C40.3771637,13.04 47.9860367,20.6452747 47.9860367,30.0341227 C47.9860367,39.4257694 40.3771637,47.0394403 30.9827183,47.0394403 C21.5958694,47.0394403 13.979,39.4257694 13.979,30.0341227 C13.979,20.6452747 21.5958694,13.04 30.9827183,13.04 Z M83.2592865,31.6777608 C84.7034172,31.6777608 86.045595,32.1423455 87.1882654,33.142282 L87.1882654,33.142282 L87.3130075,33.2518312 L85.9588352,35.077385 L85.8133027,34.9590399 C84.9976808,34.2957473 84.1188881,33.884338 83.2073106,33.884338 C82.1813862,33.884338 81.6200464,34.4124932 81.6200464,35.0797839 C81.6200464,35.811045 81.9426968,36.2228541 84.0165355,37.0248823 C86.2882825,37.8988772 87.4229566,38.8780233 87.4229566,40.7611504 C87.4229566,43.0476906 85.6561755,44.4742293 83.3112625,44.4742293 C81.7076058,44.4742293 80.1571245,43.920486 78.8069503,42.6774622 L78.8069503,42.6774622 L78.6834076,42.563515 L80.0491745,40.6971801 L80.2614761,40.9046839 C81.1482651,41.7059125 82.1114186,42.2504601 83.3284545,42.2504601 C84.4235469,42.2504601 85.0540546,41.7047131 85.0540546,40.9342702 C85.0540546,40.2837717 84.7717855,39.8199867 82.8498763,39.1103156 C80.5385477,38.2411185 79.2339524,37.3519307 79.2339524,35.2872877 C79.2339524,33.1410826 80.9291666,31.6777608 83.2592865,31.6777608 Z M174.688906,31.6777608 C176.133037,31.6777608 177.475215,32.1423455 178.617885,33.142282 L178.617885,33.142282 L178.743027,33.2518312 L177.388855,35.077385 L177.243322,34.9590399 C176.4277,34.2957473 175.548508,33.884338 174.63693,33.884338 C173.611406,33.884338 173.049666,34.4124932 173.049666,35.0797839 C173.049666,35.811045 173.372317,36.2228541 175.446555,37.0248823 C177.717902,37.8988772 178.852576,38.8780233 178.852576,40.7611504 C178.852576,43.0476906 177.085795,44.4742293 174.740882,44.4742293 C173.137225,44.4742293 171.586744,43.920486 170.23657,42.6774622 L170.23657,42.6774622 L170.113427,42.563515 L171.505182,40.7323638 L171.691496,40.9046839 C172.577885,41.7059125 173.541038,42.2504601 174.758074,42.2504601 C175.853167,42.2504601 176.483674,41.7047131 176.483674,40.9342702 C176.483674,40.2837717 176.201405,39.8199867 174.279896,39.1103156 C171.968167,38.2411185 170.663972,37.3519307 170.663972,35.2872877 C170.663972,33.1410826 172.358786,31.6777608 174.688906,31.6777608 Z M136.827656,31.649374 C138.262991,31.649374 139.34289,32.1443446 140.22768,33.0283348 C141.391089,34.1921084 141.476935,35.6078605 141.483067,37.5035281 L141.483067,38.6131738 C141.476935,40.5084736 141.391089,41.9238289 140.22768,43.0868724 C139.34289,43.9712625 138.262991,44.4670326 136.827656,44.4670326 C135.392721,44.4670326 134.29443,43.9712625 133.41044,43.0868724 C132.247397,41.9238289 132.175593,40.5084736 132.1719,38.6131738 L132.1719,37.5035281 C132.175593,35.6078605 132.247397,34.1921084 133.41044,33.0283348 C134.29443,32.1443446 135.392721,31.649374 136.827656,31.649374 Z M99.1567176,31.7133444 C100.601248,31.7133444 101.943426,32.177929 103.086496,33.1782653 L103.086496,33.1782653 L103.211638,33.2878145 L101.857066,35.1137682 L101.711134,34.9950232 C100.895911,34.3321305 100.016319,33.9199215 99.1047417,33.9199215 C98.981199,33.9199215 98.8644531,33.927518 98.7545041,33.9419113 C98.251937,34.0062815 97.8353301,34.2233809 97.5158782,34.5868124 C97.0592898,35.1657441 96.9189549,35.6219326 96.9189549,38.0951862 C96.9189549,40.5488488 97.024506,41.0402211 97.5158782,41.6191527 C97.8845073,42.0577494 98.4102636,42.2688516 99.0767547,42.2688516 C99.7968209,42.2688516 100.514488,42.0397578 100.952685,41.566777 C101.321314,41.1453723 101.514425,40.5840325 101.514425,39.8995498 L101.514425,39.8995498 L101.514425,39.1215105 L99.0767547,39.1215105 L99.0767547,36.9461188 L103.792569,36.9461188 L103.792569,39.213068 C103.792569,41.0370226 103.459923,42.1109248 102.601521,43.0213028 C101.637967,44.002448 100.480904,44.4402451 99.0767547,44.4402451 C97.7441724,44.4402451 96.6214928,43.9848561 95.7103151,43.0740783 C95.1673668,42.5315298 94.834721,41.9002224 94.694386,41.1985477 C94.5544509,40.4968729 94.4844833,39.4609531 94.4844833,38.0951862 C94.4844833,36.7270204 94.5544509,35.6923 94.694386,34.9902254 C94.834721,34.2709588 95.1673668,33.6572433 95.7103151,33.114295 C96.5743146,32.2514949 97.6582122,31.7673193 98.9040347,31.7193416 L98.9040347,31.7193416 Z M151.022676,31.8188954 L151.022676,33.9906887 L148.055652,33.9906887 L148.055652,44.2995103 L145.62038,44.2995103 L145.62038,33.9906887 L142.638163,33.9906887 L142.638163,31.8188954 L151.022676,31.8188954 Z M160.405527,31.8180958 L160.405527,33.9894893 L155.003631,33.9894893 L155.003631,36.9193312 L159.603499,36.9193312 L159.603499,39.0911245 L155.003631,39.0911245 L155.003631,42.1269174 L160.405527,42.1269174 L160.405527,44.2987107 L152.729085,44.2987107 L152.729085,31.8180958 L160.405527,31.8180958 Z M92.1503653,31.8180958 L92.1503653,44.2987107 L89.7158937,44.2987107 L89.7158937,31.8180958 L92.1503653,31.8180958 Z M62.6664319,31.8180958 C63.9642304,31.8180958 65.1396855,32.1851257 65.9629039,33.0083441 C67.3642544,34.4100943 67.2239194,36.1284978 67.2239194,38.0052279 L67.2239194,38.0052279 L67.2259969,38.4932741 C67.2366681,40.1955752 67.2423978,41.827404 65.9629039,43.1072629 C65.1396855,43.9308812 63.9642304,44.2987107 62.6664319,44.2987107 L62.6664319,44.2987107 L58.16172,44.2987107 L58.16172,31.8180958 Z M165.221295,31.8180958 L165.221295,42.1269174 L169.017135,42.1269174 L169.017135,44.2987107 L162.786423,44.2987107 L162.786423,31.8180958 L165.221295,31.8180958 Z M77.1437213,31.8180958 L77.1437213,33.9894893 L71.7410256,33.9894893 L71.7410256,36.9193312 L76.3420929,36.9193312 L76.3420929,39.0911245 L71.7410256,39.0911245 L71.7410256,42.1269174 L77.1437213,42.1269174 L77.1437213,44.2987107 L69.4672796,44.2987107 L69.4672796,31.8180958 L77.1437213,31.8180958 Z M108.271293,31.8180958 L113.217,39.4601535 L113.217,31.8180958 L115.652271,31.8180958 L115.652271,44.2987107 L113.480078,44.2987107 L108.533571,36.6382615 L108.533571,44.2987107 L106.099499,44.2987107 L106.099499,31.8180958 L108.271293,31.8180958 Z M123.041246,31.8180958 L123.041246,36.9193312 L127.269287,36.9193312 L127.269287,31.8180958 L129.702959,31.8180958 L129.702959,44.2987107 L127.269287,44.2987107 L127.269287,39.0735327 L123.041246,39.0735327 L123.041246,44.2987107 L120.606375,44.2987107 L120.606375,31.8180958 L123.041246,31.8180958 Z M136.827656,33.8419577 C136.154368,33.8419577 135.587831,34.1078344 135.233595,34.5160452 C134.755417,35.0473989 134.631874,35.631928 134.631874,38.0584032 C134.631874,40.4844787 134.755417,41.0690077 135.233595,41.6003614 C135.587831,42.0073728 136.154368,42.2736493 136.827656,42.2736493 C137.500944,42.2736493 138.050689,42.0073728 138.404525,41.6003614 C138.883103,41.0690077 139.025037,40.4844787 139.025037,38.0584032 C139.025037,35.631928 138.883103,35.0473989 138.404525,34.5160452 C138.050689,34.1078344 137.500944,33.8419577 136.827656,33.8419577 Z M62.4385376,33.9894893 L60.5969912,33.9894893 L60.5969912,42.1269174 L62.4385376,42.1269174 C63.2809471,42.1269174 63.8418871,41.8634395 64.2632918,41.3548752 C64.7190805,40.7939352 64.7894479,39.8995498 64.7894479,38.0052279 C64.7894479,36.110906 64.7190805,35.3220716 64.2632918,34.7611316 C63.8418871,34.2521675 63.2809471,33.9894893 62.4385376,33.9894893 L62.4385376,33.9894893 Z M34.2176188,20.239063 L34.1624444,20.239063 C32.8270634,20.239063 31.744765,20.9323417 31.744765,22.657542 L31.744765,22.657542 L31.744765,36.4395536 C31.744765,38.1087799 32.8270634,38.8576328 34.1624444,38.8576328 L34.1624444,38.8576328 L34.2176188,38.8576328 C35.5529998,38.8576328 36.635698,38.2087336 36.635698,36.4395536 L36.635698,36.4395536 L36.635698,22.657542 C36.635698,20.9523324 35.5529998,20.239063 34.2176188,20.239063 L34.2176188,20.239063 Z M26.8866169,27.735988 L26.8318423,27.735988 C25.4964613,27.735988 24.4137632,28.4292666 24.4137632,30.1544669 L24.4137632,30.1544669 L24.4137632,36.4395536 C24.4137632,38.1087799 25.4964613,38.8576328 26.8318423,38.8576328 L26.8318423,38.8576328 L26.8866169,38.8576328 C28.2223978,38.8576328 29.3050959,38.2087336 29.3050959,36.4395536 L29.3050959,36.4395536 L29.3050959,30.1544669 C29.3050959,28.4492574 28.2223978,27.735988 26.8866169,27.735988 L26.8866169,27.735988 Z M182.235408,31.796106 L182.789551,33.2974101 L182.799947,33.2974101 L183.335698,31.796106 L183.979,31.796106 L183.979,33.8195681 L183.588781,33.8195681 L183.620366,32.1127592 L183.607572,32.1127592 L182.968668,33.8195681 L182.626427,33.8195681 L181.977128,32.1223548 L181.974729,32.1223548 L182.003516,33.8195681 L181.612897,33.8195681 L181.612897,31.796106 L182.235408,31.796106 Z M181.155909,31.796106 L181.155909,32.1259531 L180.560185,32.1259531 L180.560185,33.8195681 L180.171965,33.8195681 L180.171965,32.1259531 L179.576241,32.1259531 L179.576241,31.796106 L181.155909,31.796106 Z M151.336931,15.3349362 C152.584352,15.3349362 153.691039,15.7903251 154.534249,16.631935 C155.618546,17.7188158 155.701953,18.8496432 155.708369,21.1039755 L155.708369,22.2790463 C155.701953,24.5328502 155.618546,25.6643021 154.534249,26.7504448 C153.691039,27.5920547 152.584352,28.0478434 151.336931,28.0478434 C150.089909,28.0478434 148.982822,27.5920547 148.139613,26.7504448 C146.964957,25.5737902 146.964957,24.3439603 146.964957,21.6915897 C146.964957,19.0384196 146.964957,17.8093892 148.139613,16.631935 C148.982822,15.7903251 150.089909,15.3349362 151.336931,15.3349362 Z M63.7303388,15.4404873 L68.3138142,27.9422923 L66.8912736,27.9422923 L65.8905375,25.1152028 L60.4286692,25.1152028 L59.4275333,27.9422923 L58.0049927,27.9422923 L62.6060599,15.4404873 L63.7303388,15.4404873 Z M166.282403,15.4404873 L166.282403,16.631935 L159.854183,16.631935 L159.854183,21.235801 L165.334042,21.235801 L165.334042,22.4280484 L159.854183,22.4280484 L159.854183,27.9422923 L158.5216,27.9422923 L158.5216,15.4404873 L166.282403,15.4404873 Z M137.27185,15.3809149 C139.45044,15.3809149 140.976533,16.6959054 140.976533,18.8565039 C140.976533,20.6844566 139.871445,21.8775036 138.255794,22.2105492 L138.255794,22.2105492 L141.222019,27.8831198 L139.661542,27.8831198 L136.814862,22.3332923 L133.810655,22.3332923 L133.810655,27.8831198 L132.478072,27.8831198 L132.478072,15.3809149 Z M94.7803462,15.3809149 L94.7803462,16.5727625 L88.3525257,16.5727625 L88.3525257,20.9831181 L93.8319858,20.9831181 L93.8319858,22.1753655 L88.3525257,22.1753655 L88.3525257,26.6908724 L94.7803462,26.6908724 L94.7803462,27.8831198 L87.0199434,27.8831198 L87.0199434,15.3809149 L94.7803462,15.3809149 Z M98.4466468,15.3809149 L102.521958,24.2484046 L106.492917,15.3809149 L107.825499,15.3809149 L107.825499,27.8831198 L106.492917,27.8831198 L106.492917,18.3835231 L103.066905,25.9164314 L101.925034,25.9164314 L98.4466468,18.3835231 L98.4466468,27.8831198 L97.1140645,27.8831198 L97.1140645,15.3809149 L98.4466468,15.3809149 Z M74.4273804,15.3809149 L78.5030912,24.2484046 L82.4732509,15.3809149 L83.8058332,15.3809149 L83.8058332,27.8831198 L82.4732509,27.8831198 L82.4732509,18.3835231 L79.0476388,25.9164314 L77.9057681,25.9164314 L74.4273804,18.3835231 L74.4273804,27.8831198 L73.0947981,27.8831198 L73.0947981,15.3809149 L74.4273804,15.3809149 Z M129.947245,15.3809149 L129.947245,16.5727625 L123.519825,16.5727625 L123.519825,20.9831181 L128.999285,20.9831181 L128.999285,22.1753655 L123.519825,22.1753655 L123.519825,26.6908724 L129.947245,26.6908724 L129.947245,27.8831198 L122.187242,27.8831198 L122.187242,15.3809149 L129.947245,15.3809149 Z M115.731035,15.3809149 C117.909625,15.3809149 119.418126,16.625538 119.418126,18.7165687 C119.418126,20.0343579 118.628892,21.0702777 117.57578,21.4564987 C118.769227,21.8946956 119.611236,22.9310152 119.611236,24.424323 C119.611236,26.6908724 118.102736,27.8831198 115.889761,27.8831198 L115.889761,27.8831198 L111.025616,27.8831198 L111.025616,15.3809149 Z M151.336931,16.5271836 C150.511313,16.5271836 149.72048,16.860629 149.175932,17.4227685 C148.385499,18.2307939 148.297539,19.0736032 148.297539,21.6915897 L148.297933,21.9751747 C148.305019,24.3711592 148.414774,25.1815128 149.175932,25.9596114 C149.72048,26.5221506 150.511313,26.8559959 151.336931,26.8559959 C152.162548,26.8559959 152.953381,26.5221506 153.497929,25.9596114 C154.288762,25.1515859 154.376322,24.3087766 154.376322,21.6915897 C154.376322,19.0736032 154.288762,18.2307939 153.497929,17.4227685 C152.953381,16.860629 152.162548,16.5271836 151.336931,16.5271836 Z M115.766219,22.1045983 L112.358198,22.1045983 L112.358198,26.6908724 L115.766219,26.6908724 C117.312302,26.6908724 118.278254,25.7944879 118.278254,24.3891393 C118.278254,22.9837908 117.312302,22.1045983 115.766219,22.1045983 L115.766219,22.1045983 Z M63.1857912,17.3548 L60.832482,23.9581391 L65.5039167,23.9581391 L63.1857912,17.3548 Z M137.148707,16.5727625 L133.810655,16.5727625 L133.810655,21.1590366 L137.148707,21.1590366 C138.606831,21.1590366 139.643551,20.4033869 139.643551,18.8748954 C139.643551,17.346004 138.606831,16.5727625 137.148707,16.5727625 L137.148707,16.5727625 Z M115.625884,16.5727625 L112.358198,16.5727625 L112.358198,20.9127507 L115.625884,20.9127507 C117.01364,20.9127507 118.085544,20.2278682 118.085544,18.7341606 C118.085544,17.2400532 117.01364,16.5727625 115.625884,16.5727625 L115.625884,16.5727625 Z M45.6039409,13.3834408 L46.1576842,14.8843451 L46.1684792,14.8843451 L46.7038311,13.3834408 L47.3471329,13.3834408 L47.3471329,15.4069029 L46.9569138,15.4069029 L46.9884991,13.700094 L46.9753052,13.700094 L46.337201,15.4069029 L45.99416,15.4069029 L45.3452608,13.7092898 L45.3424621,13.7092898 L45.3716486,15.4069029 L44.9814295,15.4069029 L44.9814295,13.3834408 L45.6039409,13.3834408 Z M44.5244413,13.3834408 L44.5244413,13.7136877 L43.9279178,13.7136877 L43.9279178,15.4069029 L43.5400976,15.4069029 L43.5400976,13.7136877 L42.9439739,13.7136877 L42.9439739,13.3834408 L44.5244413,13.3834408 Z" id="logo-design-hotels"></path>
        </g>
    </g>
</svg>