<?xml version="1.0" encoding="UTF-8"?>
<svg width="26px" height="26px" viewBox="0 0 26 26" version="1.1" xmlns="http://www.w3.org/2000/svg" xmlns:xlink="http://www.w3.org/1999/xlink">
    <title>twitter</title>
    <g id="Icons" stroke="none" stroke-width="1" fill="none" fill-rule="evenodd">
        <g id="social" transform="translate(-17.000000, -17.000000)" fill="#000000">
            <path d="M36.1093097,26.7872743 C36.1146018,26.9250973 36.1173628,27.0656814 36.1173628,27.2060354 C36.1173628,31.4771681 32.9478938,36.4008319 27.1501239,36.4008319 C25.3710796,36.4008319 23.7137522,35.8654159 22.3189558,34.9501239 C22.5651504,34.9795752 22.8166372,34.9943009 23.070885,34.9943009 C24.5471327,34.9943009 25.9067257,34.4775221 26.9851504,33.6103186 C25.6055398,33.5852389 24.4424425,32.6503894 24.0411681,31.3669558 C24.233292,31.4049204 24.4316283,31.4242478 24.6343363,31.4242478 C24.9219469,31.4242478 25.2005841,31.3865133 25.4649558,31.3105841 C24.0223009,31.0149204 22.935823,29.7082478 22.935823,28.1418053 L22.935823,28.1022301 C23.3612566,28.3424425 23.8481239,28.489469 24.3639823,28.5053451 C23.518177,27.9255221 22.961823,26.9361416 22.961823,25.8153805 C22.961823,25.223823 23.1169027,24.6681593 23.3884071,24.189115 C24.9438053,26.1464779 27.2656283,27.4317522 29.8849558,27.5668142 C29.830885,27.3300531 29.8037345,27.0840885 29.8037345,26.8307611 C29.8037345,25.0461947 31.2150973,23.5991681 32.9543363,23.5991681 C33.8613451,23.5991681 34.6809204,23.9912389 35.254531,24.6189204 C35.9740177,24.4746549 36.6474867,24.2056814 37.2572212,23.8359292 C37.0218407,24.5903894 36.5223186,25.223823 35.8711681,25.6230265 C36.5087434,25.5454867 37.1164071,25.3717699 37.6810442,25.114531 C37.2597522,25.7626903 36.7252566,26.331469 36.1093097,26.7872743 M30,17 C22.8203186,17 17,22.8203186 17,30 C17,37.1796814 22.8203186,43 30,43 C37.1796814,43 43,37.1796814 43,30 C43,22.8203186 37.1796814,17 30,17" id="twitter"></path>
        </g>
    </g>
</svg>